<?xml version="1.0" encoding="UTF-8"?>
<svg id="Layer_1" xmlns="http://www.w3.org/2000/svg" version="1.1" viewBox="0 0 310 140">
  <!-- Generator: Adobe Illustrator 29.6.1, SVG Export Plug-In . SVG Version: 2.1.1 Build 9)  -->
  <defs>
    <style>
      .st0 {
        fill: #2a1b0d;
      }

      .st1 {
        fill: #404041;
      }
    </style>
  </defs>
  <g>
    <path class="st0" d="M17.55,98.93c0-1.89.03-4.49.09-7.79.06-3.3.15-6.73.27-10.27.12-3.54.24-6.97.35-10.27.12-3.3.24-5.85.35-7.62.12-2.83.24-5.64.35-8.41.12-2.77.18-5.34.18-7.7,0-1.06-.03-2.71-.09-4.96-.06-2.24-.15-4.87-.27-7.88-.12-3.01-.3-5.58-.53-7.7-.24-2.83-.38-4.78-.44-5.85-.06-1.06-.09-1.83-.09-2.3,0-.83.09-1.56.27-2.21.18-.65.53-1.09,1.06-1.33s1.33-.35,2.39-.35h4.43c.94,0,1.62.12,2.04.35.41.24.62.65.62,1.24v2.66c0,1.06.06,2.51.18,4.34s.29,3.45.53,4.87c.12,1.77.2,4.05.27,6.82.06,2.78.09,5.99.09,9.65v6.38c0,1.54.03,2.63.09,3.28s.12.97.18.97.2-.12.44-.35c1.77-2.12,3.92-5.05,6.46-8.77,2.54-3.72,4.99-7.5,7.35-11.34s4.37-7.26,6.02-10.27c1.65-3.01,2.48-4.87,2.48-5.58,0-.35.27-1.18.8-2.48s1.03-2.18,1.51-2.66h.18c.24,0,.77.15,1.59.44.82.3,1.8.71,2.92,1.24s2.15,1.09,3.1,1.68c.94.59,1.48,1,1.59,1.24v.18c0,.47-.27,1.39-.8,2.74-.53,1.36-1.27,3.04-2.21,5.05-.95,2.01-2.01,4.13-3.19,6.38-1.18,2.24-2.36,4.31-3.54,6.2-1.42,2.13-2.95,4.46-4.6,7-1.66,2.54-3.28,4.96-4.87,7.26-1.59,2.3-3.07,4.43-4.43,6.38-1.36,1.95-2.45,3.39-3.28,4.34-.35.47-.62.83-.8,1.06-.18.24-.27.47-.27.71,0,.12.06.3.18.53.12.24.47.71,1.06,1.42.59.71,1.48,1.65,2.66,2.83,4.72,5.08,9.3,9.71,13.73,13.9s7.94,7.29,10.54,9.3c3.19,2.36,5.34,4.25,6.46,5.67,1.12,1.42,1.68,2.42,1.68,3.01,0,.47-.18.83-.53,1.06-.24.12-.5.27-.8.44-.3.18-.56.38-.8.62-.71.47-1.66,1-2.83,1.59-.95.83-1.71,1.36-2.3,1.59-.35.36-.65.53-.89.53-.59,0-1.12-.47-1.59-1.42-.24-.35-.8-.89-1.68-1.59-.89-.71-1.86-1.48-2.92-2.3-1.54-1.06-3.43-2.6-5.67-4.6-2.24-2.01-4.64-4.22-7.17-6.64-2.54-2.42-5.11-4.99-7.7-7.7-2.6-2.72-5.08-5.43-7.44-8.15l-1.42-1.59-.18,5.85c-.12,1.65-.18,3.96-.18,6.91v13.64c0,1.3-.03,2.24-.09,2.83s-.15.95-.27,1.06c-.12.12-.24.18-.35.18-.59,0-1.06.18-1.42.53-.35.47-2.95.5-3.19.44-.24-.06-1.59-.03-2.3.09h-1.42c-.83,0-1.3-.06-1.42-.18-.12-.24-.27-1.06-.44-2.48-.18-1.42-.27-2.6-.27-3.54l.18-.18v-.02Z"/>
    <path class="st0" d="M117.28,17.28c0-.47.06-.8.18-.97.12-.18.35-.27.71-.27.24-.12.41-.27.53-.44.12-.18.18-.62.18-1.33,0-.94,8.62-2.36,8.86-2.48.12,0,.35.27.71.8.35.53.86,1.42,1.51,2.66s1.51,2.98,2.57,5.22c1.65,3.43,3.33,6.64,5.05,9.65,1.71,3.01,3.87,6.52,6.46,10.54,1.77,2.83,3.36,5.46,4.78,7.88s2.95,5.22,4.61,8.41c1.65,3.19,3.54,7,5.67,11.42s4.78,10.07,7.97,16.91c.59,1.3.97,2.1,1.15,2.39.18.3.32.44.44.44s.2-.27.27-.8c.06-.53.15-1.21.27-2.04-.12-.83-.21-2.15-.27-3.99-.06-1.83-.21-4.99-.44-9.48-.24-1.89-.42-4.93-.53-9.12-.12-4.19-.18-8.29-.18-12.31-.12-3.78-.21-7.05-.27-9.83-.06-2.77-.18-5.25-.35-7.44-.18-2.18-.38-4.13-.62-5.85-.24-1.71-.53-3.39-.89-5.05-.35-2.01-.56-3.45-.62-4.34s-.09-1.56-.09-2.04c0-.24.59-.65,1.77-1.24,1.18-.59,2.48-1.18,3.9-1.77,1.18-.47,1.95-.89,2.3-1.24.24-.47.53-.71.89-.71s.82.65,1.42,1.95c.59,1.3,1.18,3.78,1.77,7.44s1.06,8.21,1.42,13.64c.35,5.43.59,11.34.71,17.71.12,2.95.27,6.41.44,10.36.18,3.96.32,7.17.44,9.65.24,3.54.44,6.44.62,8.68.18,2.24.27,4.07.27,5.49s-.03,2.57-.09,3.45c-.06.89-.15,1.8-.27,2.74-.24,2.01-.5,3.96-.8,5.85s-.65,3.6-1.06,5.14c-.42,1.54-.86,2.78-1.33,3.72-.47.95-.89,1.48-1.24,1.59-.35.24-.53.47-.53.71,0,.47-.35.77-1.06.89-.59,0-1,.24-1.24.71-.35.35-.95.53-1.77.53-.12,0-.47-.03-1.06-.09s-1.3-.38-2.13-.97c-.59-.35-1.09-.74-1.51-1.15s-.86-1.03-1.33-1.86c-.47-.82-1.06-1.95-1.77-3.37-.71-1.42-1.59-3.25-2.66-5.49-2.72-5.78-4.93-10.48-6.64-14.08-1.71-3.6-3.1-6.55-4.16-8.86-1.06-2.3-1.92-4.1-2.57-5.4-.65-1.3-1.27-2.6-1.86-3.9-1.66-3.42-3.51-6.96-5.58-10.63-2.07-3.66-4.75-8.09-8.06-13.28l-2.66-4.07.18,3.54c.35,8.15.59,15.35.71,21.61.12,6.26.18,11.51.18,15.76,0,2.72-.03,6.29-.09,10.72s-.27,8.71-.62,12.84c-.35,4.13-.77,6.55-1.24,7.26-.83.94-1.45,1.42-1.86,1.42s-1.51-.42-3.28-1.24c-.95-.47-1.8-.85-2.57-1.15-.77-.29-1.27-.44-1.51-.44-.59,0-.97-.2-1.15-.62-.18-.41-.27-.74-.27-.97,0-.47.12-.94.35-1.42.35-.59.62-2.15.8-4.69.18-2.54.29-5.28.35-8.24.06-2.95.09-5.49.09-7.62,0-2.24-.03-5.25-.09-9.03s-.15-8.38-.27-13.82l.18-.35c-.24-6.61-.42-11.96-.53-16.03-.12-4.07-.21-7.38-.27-9.92s-.18-4.63-.35-6.29c-.18-1.65-.33-3.37-.44-5.14-.24-1.89-.38-3.22-.44-3.99s-.09-1.39-.09-1.86v-1.06.05Z"/>
    <path class="st0" d="M189.19,17.28c0-.47.06-.8.18-.97.12-.18.35-.27.71-.27.24-.12.41-.27.53-.44.12-.18.18-.62.18-1.33,0-.94,6.43-1.59,6.91-1.59.36,0,1.71-.77,1.95-.89.12,0,.35.27.71.8s.85,1.42,1.51,2.66c.65,1.24,1.51,2.98,2.57,5.22,1.65,3.43,3.33,6.64,5.05,9.65,1.71,3.01,3.87,6.52,6.46,10.54,1.77,2.83,3.37,5.46,4.78,7.88,1.42,2.42,2.95,5.22,4.6,8.41s3.54,7,5.67,11.42c2.13,4.43,4.78,10.07,7.97,16.91.59,1.3.97,2.1,1.15,2.39.18.3.32.44.44.44s.2-.27.27-.8c.06-.53.15-1.21.27-2.04-.12-.83-.21-2.15-.27-3.99-.06-1.83-.21-4.99-.44-9.48-.24-1.89-.42-4.93-.53-9.12-.12-4.19-.18-8.29-.18-12.31-.12-3.78-.21-7.05-.27-9.83-.06-2.77-.18-5.25-.35-7.44-.18-2.18-.39-4.13-.62-5.85-.24-1.71-.53-3.39-.89-5.05-.35-2.01-.56-3.45-.62-4.34s-.09-1.56-.09-2.04c0-.24.59-.65,1.77-1.24,1.18-.59,2.48-1.18,3.9-1.77,1.18-.47,1.95-.89,2.3-1.24.24-.47.53-.71.89-.71s.83.65,1.42,1.95c.59,1.3,1.18,3.78,1.77,7.44s1.06,8.21,1.42,13.64c.35,5.43.59,11.34.71,17.71.12,2.95.27,6.41.44,10.36.18,3.96.32,7.17.44,9.65.24,3.54.44,6.44.62,8.68.18,2.24.27,4.07.27,5.49s-.03,2.57-.09,3.45c-.06.89-.15,1.8-.27,2.74-.24,2.01-.5,3.96-.8,5.85s-.65,3.6-1.06,5.14c-.42,1.54-.86,2.78-1.33,3.72-.47.95-.89,1.48-1.24,1.59-.35.24-.53.47-.53.71,0,.47-.35.77-1.06.89-.59,0-1,.24-1.24.71-.35.35-.95.53-1.77.53-.12,0-.47-.03-1.06-.09s-1.3-.38-2.12-.97c-.59-.35-1.09-.74-1.51-1.15s-.86-1.03-1.33-1.86c-.47-.82-1.06-1.95-1.77-3.37-.71-1.42-1.59-3.25-2.66-5.49-2.72-5.78-4.93-10.48-6.64-14.08-1.71-3.6-3.1-6.55-4.16-8.86s-1.92-4.1-2.57-5.4c-.65-1.3-1.27-2.6-1.86-3.9-1.66-3.42-3.51-6.96-5.58-10.63-2.07-3.66-4.75-8.09-8.06-13.28l-2.66-4.07.18,3.54c.35,8.15.59,15.35.71,21.61s.18,11.51.18,15.76c0,2.72-.03,6.29-.09,10.72s-.27,8.71-.62,12.84c-.36,4.13-.77,6.55-1.24,7.26-.83.94-1.45,1.42-1.86,1.42s-1.51-.42-3.28-1.24c-.95-.47-1.8-.85-2.57-1.15-.77-.29-1.27-.44-1.51-.44-.59,0-.97-.2-1.15-.62-.18-.41-.27-.74-.27-.97,0-.47.12-.94.35-1.42.36-.59.62-2.15.8-4.69s.29-5.28.35-8.24c.06-2.95.09-5.49.09-7.62,0-2.24-.03-5.25-.09-9.03s-.15-8.38-.27-13.82l.18-.35c-.24-6.61-.42-11.96-.53-16.03-.12-4.07-.21-7.38-.27-9.92s-.18-4.63-.36-6.29c-.18-1.65-.33-3.37-.44-5.14-.24-1.89-.38-3.22-.44-3.99s-.09-1.39-.09-1.86v-1.06.05Z"/>
    <path class="st0" d="M258.48,85.28v-28.34c0-10.74.03-19.07.09-24.97s.12-10.21.18-12.93c.06-2.72.12-4.34.18-4.87s.2-.85.44-.97c.24-.24.35-.59.35-1.06v-.35c-.12-.35-.18-.65-.18-.89,0-.59.47-.89,1.42-.89.59,0,.89-.12.89-.35,0-.35.2-.56.62-.62.41-.06,1.74-.15,3.99-.27,1.18-.12,2.57-.24,4.16-.35,1.59-.12,2.98-.24,4.16-.35,2.83-.35,5.52-.65,8.06-.89s4.66-.41,6.38-.53c1.71-.12,3.1-.18,4.16-.18.47,0,1.12.03,1.95.09.83.06,1.36.15,1.59.27.12.24.2.86.27,1.86.06,1.01.09,2.13.09,3.37s-.06,2.36-.18,3.37c-.12,1-.24,1.57-.35,1.68-.12.12-1.12.24-3.01.35l-6.91.71c-4.13.35-7.38.68-9.74.97-2.36.3-4.55.56-6.55.8l-1.42.18.35,14.52c0,2.01.03,3.93.09,5.76s.09,3.4.09,4.69v4.25c.47,0,.94-.06,1.42-.18.47,0,.94-.03,1.42-.09.47-.06,1-.15,1.59-.27,4.01-.59,7.5-.97,10.45-1.15s5.14-.27,6.55-.27,2.54.06,3.37.18c2.01.24,3.1.44,3.28.62s.27.62.27,1.33v1.06c-.12,1.18-.27,2.69-.44,4.52-.18,1.83-.33,2.92-.44,3.28-.24.24-1,.35-2.3.35-1.89,0-4.22.12-7,.35-2.78.24-5.49.5-8.15.8s-4.96.62-6.91.97-2.98.65-3.1.89c-.12.12-.18,1.09-.18,2.92s-.03,3.72-.09,5.67-.09,3.63-.09,5.05.03,3.25.09,5.49.12,4.64.18,7.17c.06,2.54.12,4.64.18,6.29.06,1.66.15,2.48.27,2.48,3.07-.71,6.31-1.3,9.74-1.77,3.42-.47,6.46-.8,9.12-.97,2.66-.18,4.93-.27,6.82-.27.71,0,1.77.03,3.19.09s2.54.33,3.37.8c.35.12.53.74.53,1.86s-.24,2.92-.71,5.4c-.12.83-.21,1.42-.27,1.77-.06.35-.3.62-.71.8-.42.18-1.15.27-2.21.27l-4.78.35c-2.13.12-3.93.21-5.4.27-1.48.06-2.83.18-4.07.35-1.24.18-2.51.38-3.81.62s-2.83.53-4.6.89c-2.24.47-4.72.86-7.44,1.15-2.72.3-4.72.44-6.02.44-.35,0-.59-.12-.71-.35-.12-.35-.3-1-.53-1.95-.24-.71-.42-1.15-.53-1.33-.12-.18-.47-.27-1.06-.27v-.35c-.35,0-.65-.15-.89-.44-.24-.29-.38-1.51-.44-3.63-.06-2.13-.09-4.37-.09-6.73v-8.5l-.04-.02Z"/>
    <g>
      <circle class="st0" cx="87.26" cy="52.67" r="6.59"/>
      <circle class="st0" cx="106.56" cy="51.06" r="6.59"/>
      <path class="st0" d="M94.45,98.84c-1.6,1.74-3.28,3.44-5.05,4.81l-.63.45c-.2.13-.36.22-.53.33-.35.2-.7.37-1.05.5-.69.25-1.53.27-2.08-.28-.53-.54-.71-1.3-.82-1.96-.04-.33-.07-.65-.1-1.1-.04-.53-.06-1.08-.07-1.63-.02-2.22.17-4.53.46-6.83,1.2-9.23,3.48-18.52,5.99-27.61.27-1.28-1.63-2.76-4.24-3.36-2.62-.59-4.98.04-5.26,1.37-.68,4.85-1.23,9.69-1.66,14.56-.41,4.87-.7,9.77-.65,14.73.03,2.48.16,4.99.52,7.54.1.64.21,1.29.35,1.94.16.74.39,1.59.67,2.4.61,1.58,1.47,3.01,2.83,3.81,1.38.83,3.11.67,4.51.02.72-.33,1.39-.76,2.03-1.24.3-.25.64-.5.91-.74l.74-.71c1.79-1.84,3.25-3.79,4.65-5.79.17-.21-.03-.65-.46-.98-.42-.33-.9-.43-1.06-.23h0Z"/>
      <path class="st0" d="M111.02,93.01c-.72,1.46-1.48,2.93-2.18,4.22-.18.32-.35.64-.52.96l-.45.79c-.29.53-.61,1.03-.91,1.53-.62.98-1.23,1.91-1.9,2.73-.33.41-.67.8-1.05,1.13-.38.32-.79.65-1.29.67-.54.04-.87-.51-1.02-.97-.17-.48-.24-.98-.29-1.47-.09-.97-.07-1.91-.03-2.79.04-.88.12-1.71.21-2.49.11-.84.22-1.65.32-2.44,1.17-7.97,2.68-13.7,3.87-17.88,2.46-8.35,3.95-10.51,4.2-11.83.28-1.41-1.61-2.98-4.23-3.54s-5,.17-5.29,1.62c-.26,1.35.15,3.95-.42,12.75-.24,4.41-.82,10.35-1.28,18.58-.03.58-.05,1.18-.08,1.78-.03.69-.06,1.38-.06,2.07-.03,1.38,0,2.77.1,4.09s.32,2.55.66,3.69c.17.57.38,1.13.7,1.66.3.5.83,1.1,1.59,1.06.71-.02,1.29-.41,1.82-.79.54-.39,1.03-.88,1.53-1.41.98-1.06,1.94-2.4,2.87-3.87.45-.77.93-1.51,1.36-2.32.22-.4.45-.8.67-1.21.19-.36.39-.72.58-1.09.78-1.46,1.48-2.86,2.23-4.36.13-.26-.15-.67-.63-.9-.48-.24-.98-.22-1.11.04h.03Z"/>
    </g>
  </g>
  <g>
    <path class="st1" d="M44.5,124.88c0-.07.05-.13.12-.13h1.51c1.3,0,2.37,1.06,2.37,2.36s-1.07,2.37-2.37,2.37h-1.51c-.07,0-.12-.06-.12-.13v-4.47h0ZM46.03,129.01c1.11,0,1.91-.79,1.91-1.9s-.8-1.9-1.91-1.9h-1.01v3.8h1.01Z"/>
    <path class="st1" d="M56.3,124.88c0-.07.05-.13.13-.13h2.66c.07,0,.13.06.13.13v.2c0,.07-.05.13-.13.13h-2.27v1.65h1.94c.07,0,.13.06.13.13v.2c0,.07-.06.13-.13.13h-1.94v1.72h2.27c.07,0,.13.06.13.13v.2c0,.07-.05.13-.13.13h-2.66c-.07,0-.13-.06-.13-.13v-4.49Z"/>
    <path class="st1" d="M66.75,128.76s.07-.09.1-.13c.07-.09.14-.14.24-.06.05.04.54.51,1.14.51.55,0,.9-.34.9-.74,0-.46-.41-.74-1.18-1.06-.74-.32-1.19-.63-1.19-1.4,0-.46.36-1.2,1.44-1.2.66,0,1.15.34,1.15.34.04.02.12.1.04.23-.03.04-.05.09-.08.13-.06.1-.13.12-.24.06-.05-.03-.47-.31-.88-.31-.72,0-.93.46-.93.74,0,.45.34.71.91.95.91.37,1.5.72,1.5,1.5,0,.7-.67,1.22-1.46,1.22s-1.34-.47-1.42-.55c-.05-.05-.12-.1-.04-.23h0Z"/>
    <path class="st1" d="M77.4,124.88c0-.07.05-.13.13-.13h2.66c.07,0,.13.06.13.13v.2c0,.07-.05.13-.13.13h-2.27v1.65h1.94c.07,0,.13.06.13.13v.2c0,.07-.06.13-.13.13h-1.94v1.72h2.27c.07,0,.13.06.13.13v.2c0,.07-.05.13-.13.13h-2.66c-.07,0-.13-.06-.13-.13v-4.49Z"/>
    <path class="st1" d="M88.16,124.88c0-.07.05-.13.13-.13h1.75c.81,0,1.47.63,1.47,1.44,0,.62-.41,1.14-1,1.38l.92,1.72c.05.09,0,.2-.11.2h-.34c-.06,0-.1-.03-.11-.06l-.9-1.79h-1.29v1.72c0,.07-.06.13-.13.13h-.26c-.07,0-.13-.06-.13-.13v-4.47h0ZM90,127.18c.52,0,.97-.43.97-.98,0-.51-.45-.95-.97-.95h-1.31v1.94h1.31Z"/>
    <path class="st1" d="M98.73,124.92c-.04-.09,0-.18.11-.18h.27c.06,0,.1.04.11.07l1.68,3.78h.03l1.68-3.78s.06-.07.11-.07h.27c.1,0,.16.09.11.18l-2.05,4.54s-.06.08-.11.08h-.07s-.09-.04-.11-.08l-2.04-4.54h.01Z"/>
    <path class="st1" d="M110.61,124.88c0-.07.05-.13.13-.13h2.66c.07,0,.13.06.13.13v.2c0,.07-.05.13-.13.13h-2.27v1.65h1.94c.07,0,.13.06.13.13v.2c0,.07-.06.13-.13.13h-1.94v1.72h2.27c.07,0,.13.06.13.13v.2c0,.07-.05.13-.13.13h-2.66c-.07,0-.13-.06-.13-.13v-4.49Z"/>
    <path class="st1" d="M137.87,124.88c0-.07.05-.13.13-.13h1.48c.82,0,1.38.53,1.38,1.24,0,.52-.34.9-.66,1.08.36.15.81.48.81,1.1,0,.76-.6,1.3-1.47,1.3h-1.54c-.07,0-.13-.06-.13-.13v-4.47h0ZM139.59,129.02c.49,0,.85-.37.85-.86s-.44-.83-.96-.83h-1.11v1.69h1.23,0ZM139.48,126.87c.52,0,.81-.37.81-.84s-.29-.81-.81-.81h-1.1v1.66h1.1Z"/>
    <path class="st1" d="M148.84,124.88c0-.07.05-.13.13-.13h2.66c.07,0,.13.06.13.13v.2c0,.07-.05.13-.13.13h-2.27v1.65h1.94c.07,0,.13.06.13.13v.2c0,.07-.06.13-.13.13h-1.94v1.72h2.27c.07,0,.13.06.13.13v.2c0,.07-.05.13-.13.13h-2.66c-.07,0-.13-.06-.13-.13v-4.49Z"/>
    <path class="st1" d="M160.26,125.2h-1.17c-.07,0-.13-.06-.13-.13v-.2c0-.07.05-.13.13-.13h2.86c.07,0,.13.06.13.13v.2c0,.07-.05.13-.13.13h-1.17v4.14c0,.07-.06.13-.13.13h-.26c-.07,0-.13-.06-.13-.13v-4.14Z"/>
    <path class="st1" d="M170.41,125.2h-1.17c-.07,0-.13-.06-.13-.13v-.2c0-.07.05-.13.13-.13h2.86c.08,0,.13.06.13.13v.2c0,.07-.05.13-.13.13h-1.18v4.14c0,.07-.06.13-.13.13h-.26c-.07,0-.13-.06-.13-.13v-4.14h.01Z"/>
    <path class="st1" d="M179.72,124.88c0-.07.06-.13.13-.13h2.66c.08,0,.13.06.13.13v.2c0,.07-.05.13-.13.13h-2.27v1.65h1.94c.07,0,.13.06.13.13v.2c0,.07-.06.13-.13.13h-1.94v1.72h2.27c.08,0,.13.06.13.13v.2c0,.07-.05.13-.13.13h-2.66c-.07,0-.13-.06-.13-.13v-4.49Z"/>
    <path class="st1" d="M190.48,124.88c0-.07.06-.13.13-.13h1.75c.81,0,1.47.63,1.47,1.44,0,.62-.41,1.14-1,1.38l.93,1.72c.04.09,0,.2-.12.2h-.34c-.06,0-.1-.03-.11-.06l-.9-1.79h-1.29v1.72c0,.07-.06.13-.13.13h-.26c-.07,0-.13-.06-.13-.13v-4.47h0ZM192.32,127.18c.52,0,.97-.43.97-.98,0-.51-.45-.95-.97-.95h-1.31v1.94h1.31Z"/>
    <path class="st1" d="M218.2,124.88c0-.07.06-.13.13-.13h.26c.08,0,.13.06.13.13v1.97h2.74v-1.97c0-.07.06-.13.13-.13h.26c.07,0,.13.06.13.13v4.47c0,.07-.06.13-.13.13h-.26c-.07,0-.13-.06-.13-.13v-2.04h-2.74v2.04c0,.07-.05.13-.13.13h-.26c-.07,0-.13-.06-.13-.13v-4.47Z"/>
    <path class="st1" d="M230.11,124.88c0-.07.06-.13.13-.13h2.66c.08,0,.13.06.13.13v.2c0,.07-.05.13-.13.13h-2.27v1.65h1.94c.07,0,.13.06.13.13v.2c0,.07-.06.13-.13.13h-1.94v1.72h2.27c.08,0,.13.06.13.13v.2c0,.07-.05.13-.13.13h-2.66c-.07,0-.13-.06-.13-.13v-4.49Z"/>
    <path class="st1" d="M240.22,129.3l2.05-4.54s.06-.07.12-.07h.07c.06,0,.09.03.11.07l2.04,4.54c.04.09-.01.18-.12.18h-.27c-.06,0-.1-.04-.12-.08l-.5-1.11h-2.4l-.49,1.11s-.06.08-.12.08h-.27c-.1,0-.16-.09-.12-.18h.02ZM243.42,127.86c-.33-.74-.66-1.48-.99-2.21h-.05l-.99,2.21h2.03,0Z"/>
    <path class="st1" d="M252.09,124.88c0-.07.06-.13.13-.13h.26c.07,0,.13.06.13.13v4.14h1.94c.08,0,.13.06.13.13v.2c0,.07-.05.13-.13.13h-2.34c-.07,0-.13-.06-.13-.13v-4.47h0Z"/>
    <path class="st1" d="M262.54,125.2h-1.17c-.08,0-.13-.06-.13-.13v-.2c0-.07.06-.13.13-.13h2.86c.08,0,.13.06.13.13v.2c0,.07-.05.13-.13.13h-1.18v4.14c0,.07-.06.13-.13.13h-.26c-.07,0-.13-.06-.13-.13v-4.14h.01Z"/>
    <path class="st1" d="M271.85,124.88c0-.07.06-.13.13-.13h.26c.08,0,.13.06.13.13v1.97h2.74v-1.97c0-.07.06-.13.13-.13h.26c.07,0,.13.06.13.13v4.47c0,.07-.06.13-.13.13h-.26c-.07,0-.13-.06-.13-.13v-2.04h-2.74v2.04c0,.07-.05.13-.13.13h-.26c-.07,0-.13-.06-.13-.13v-4.47Z"/>
  </g>
</svg>